<svg width="47" height="36" viewBox="0 0 47 36" fill="none" xmlns="http://www.w3.org/2000/svg">
<path d="M23 30.1993C35.7025 30.1993 46 24.7821 46 18.0996C46 11.4172 35.7025 6 23 6C10.2975 6 0 11.4172 0 18.0996C0 24.7821 10.2975 30.1993 23 30.1993Z" fill="url(#paint0_radial_11321_263605)"/>
<path d="M22.9999 29.3007C35.2062 29.3007 45.1013 24.2858 45.1013 18.0997C45.1013 11.9135 35.2062 6.89868 22.9999 6.89868C10.7937 6.89868 0.89856 11.9135 0.89856 18.0997C0.89856 24.2858 10.7937 29.3007 22.9999 29.3007Z" fill="#6280B6"/>
<path d="M27.4768 21.7139L28.5726 16.0723C28.729 15.5896 28.7549 15.074 28.6475 14.578C28.5402 14.0819 28.3035 13.6232 27.9614 13.2483C27.0074 12.571 25.8394 12.2644 24.6757 12.3858H22.7815L23.3253 9.59291C23.3349 9.54095 23.333 9.48751 23.3197 9.43636C23.3064 9.38521 23.2821 9.33759 23.2484 9.29687C23.2147 9.25614 23.1725 9.2233 23.1248 9.20065C23.077 9.178 23.0249 9.16609 22.9721 9.16577H20.3435C20.2601 9.16606 20.1794 9.19517 20.115 9.24816C20.0506 9.30116 20.0066 9.37478 19.9903 9.45656L18.8255 15.4464C18.7359 14.806 18.4639 14.2048 18.0418 13.7148C17.5722 13.2441 17.0055 12.8815 16.3812 12.6525C15.7569 12.4235 15.0902 12.3336 14.4276 12.3891H9.36427C9.28088 12.3893 9.20017 12.4185 9.13579 12.4714C9.07142 12.5244 9.02735 12.5981 9.01105 12.6798L6.6552 24.8041C6.64559 24.8561 6.64749 24.9095 6.66077 24.9607C6.67405 25.0118 6.69839 25.0594 6.73207 25.1002C6.76574 25.1409 6.80794 25.1737 6.85569 25.1964C6.90343 25.219 6.95556 25.2309 7.00841 25.2313H9.64191C9.72529 25.231 9.80601 25.2019 9.87038 25.1489C9.93476 25.0959 9.97883 25.0223 9.99512 24.9405L10.5652 22.008H12.5366C13.407 22.0304 14.2757 21.9196 15.1126 21.6794C15.8174 21.4444 16.4622 21.0581 17.0019 20.5475C17.444 20.1461 17.8209 19.6783 18.1191 19.1609L17.6476 21.5841C17.6379 21.6361 17.6398 21.6895 17.6531 21.7407C17.6664 21.7918 17.6907 21.8394 17.7244 21.8802C17.7581 21.9209 17.8003 21.9537 17.848 21.9764C17.8958 21.999 17.9479 22.011 18.0008 22.0113H20.6293C20.7127 22.011 20.7934 21.9819 20.8578 21.9289C20.9222 21.8759 20.9663 21.8023 20.9826 21.7205L22.2755 15.0653H24.0728C24.8383 15.0653 25.0585 15.2181 25.1242 15.2838C25.1899 15.3495 25.2885 15.5548 25.1653 16.2186L24.1221 21.5825C24.1124 21.6345 24.1143 21.6879 24.1276 21.739C24.1409 21.7902 24.1652 21.8378 24.1989 21.8785C24.2326 21.9193 24.2748 21.9521 24.3225 21.9748C24.3703 21.9974 24.4224 22.0093 24.4753 22.0096H27.1367C27.2185 22.0061 27.2967 21.975 27.3585 21.9213C27.4202 21.8675 27.462 21.7944 27.4768 21.7139ZM15.3278 17.0581C15.2473 17.7477 14.92 18.385 14.4062 18.8521C13.7607 19.2537 13.0038 19.4385 12.2458 19.3794H11.0761L11.9222 15.0242H13.4353C14.5475 15.0242 14.9943 15.2624 15.1751 15.4612C15.313 15.701 15.398 15.9676 15.4244 16.2431C15.4507 16.5185 15.4178 16.7964 15.3278 17.0581ZM38.6827 13.7165C38.2131 13.2457 37.6463 12.8832 37.0221 12.6542C36.3978 12.4252 35.731 12.3353 35.0684 12.3907H29.9903C29.907 12.391 29.8262 12.4201 29.7619 12.4731C29.6975 12.5261 29.6534 12.5997 29.6371 12.6815L27.2813 24.8058C27.2717 24.8577 27.2736 24.9112 27.2868 24.9623C27.3001 25.0135 27.3245 25.0611 27.3581 25.1018C27.3918 25.1425 27.434 25.1754 27.4818 25.198C27.5295 25.2207 27.5816 25.2326 27.6345 25.2329H30.2762C30.3596 25.2326 30.4403 25.2035 30.5047 25.1505C30.569 25.0975 30.6131 25.0239 30.6294 24.9421L31.1995 22.0096H33.1709C34.0413 22.032 34.91 21.9212 35.7469 21.6811C36.4517 21.4461 37.0965 21.0597 37.6362 20.5491C38.5581 19.7174 39.1795 18.6045 39.4039 17.3833C39.5809 16.7585 39.6079 16.1007 39.4825 15.4635C39.3572 14.8263 39.0832 14.2277 38.6827 13.7165ZM35.9441 17.0581C35.8636 17.7477 35.5362 18.385 35.0224 18.8521C34.3754 19.2541 33.6165 19.4384 32.8571 19.3778H31.6907L32.5368 15.0226H34.0498C35.1621 15.0226 35.6089 15.2608 35.7896 15.4596C35.9281 15.6995 36.0135 15.9663 36.0402 16.2421C36.0668 16.5178 36.034 16.796 35.9441 17.0581Z" fill="white"/>
<path d="M13.4354 14.6627C13.7899 14.6185 14.1496 14.6448 14.4938 14.7401C14.8381 14.8354 15.1601 14.9978 15.4414 15.218C15.6227 15.4972 15.7384 15.8139 15.7796 16.1443C15.8209 16.4746 15.7867 16.8101 15.6796 17.1253C15.5849 17.9013 15.2098 18.6159 14.6249 19.1345C13.9187 19.5895 13.0839 19.8028 12.246 19.7424H10.6393L11.625 14.6676L13.4354 14.6627ZM7.00037 24.8747H9.64208L10.268 21.6514H12.5302C13.3628 21.6723 14.1937 21.5665 14.9945 21.3376C15.6514 21.1207 16.2518 20.7604 16.7524 20.2829C17.6194 19.5041 18.2031 18.4592 18.4117 17.3126C18.5774 16.7425 18.6066 16.1414 18.4967 15.558C18.3868 14.9746 18.141 14.4253 17.7792 13.9546C17.3427 13.5233 16.8176 13.1922 16.2402 12.9845C15.6628 12.7768 15.0471 12.6975 14.4359 12.752H9.36444L7.00037 24.8747ZM20.3502 9.5271H22.9788L22.343 12.7504H24.6775C25.7497 12.6386 26.8267 12.9111 27.7168 13.5192C28.011 13.8542 28.2122 14.2605 28.3001 14.6976C28.388 15.1346 28.3597 15.5871 28.2179 16.0098L27.1221 21.6514H24.4623L25.5055 16.2875C25.5777 16.0826 25.6034 15.8643 25.5806 15.6483C25.5579 15.4324 25.4873 15.2242 25.3741 15.0389C24.9937 14.7662 24.5237 14.6487 24.0598 14.7103H21.9652L20.6147 21.6563H17.9862L20.3502 9.5271ZM34.0517 14.6627C34.4061 14.6185 34.7658 14.6448 35.11 14.7401C35.4543 14.8354 35.7763 14.9978 36.0576 15.218C36.2389 15.4972 36.3546 15.8139 36.3959 16.1443C36.4371 16.4746 36.4029 16.8101 36.2958 17.1253C36.2011 17.9013 35.826 18.6159 35.2411 19.1345C34.5335 19.5905 33.6968 19.8039 32.8573 19.7424H31.2506L32.2363 14.6676L34.0517 14.6627ZM27.6166 24.8747H30.2583L30.8842 21.6514H33.1464C33.979 21.6723 34.81 21.5665 35.6107 21.3376C36.2676 21.1207 36.8681 20.7604 37.3686 20.2829C38.2356 19.5041 38.8193 18.4592 39.0279 17.3126C39.1937 16.7425 39.2228 16.1414 39.1129 15.558C39.003 14.9746 38.7572 14.4253 38.3954 13.9546C37.959 13.5233 37.4338 13.1922 36.8564 12.9845C36.279 12.7768 35.6633 12.6975 35.0522 12.752H29.9724L27.6166 24.8747Z" fill="#000004"/>
<defs>
<radialGradient id="paint0_radial_11321_263605" cx="0" cy="0" r="1" gradientUnits="userSpaceOnUse" gradientTransform="translate(13.8099 10.255) scale(30.2023 30.2023)">
<stop stop-color="white"/>
<stop offset="0.5" stop-color="#4C6B96"/>
<stop offset="1" stop-color="#231F20"/>
</radialGradient>
</defs>
</svg>
