<svg width="47" height="36" viewBox="0 0 47 36" fill="none" xmlns="http://www.w3.org/2000/svg">
<path d="M11.9999 20.1375C13.1804 20.1375 14.1374 19.1806 14.1374 18C14.1374 16.8195 13.1804 15.8625 11.9999 15.8625C10.8194 15.8625 9.86243 16.8195 9.86243 18C9.86243 19.1806 10.8194 20.1375 11.9999 20.1375Z" fill="#61DAFB"/>
<path d="M20.1187 14.475C19.7062 14.325 19.2749 14.175 18.8249 14.0438C18.9374 13.5938 19.0312 13.1438 19.1062 12.7125C19.4999 10.2375 19.0687 8.4938 17.8687 7.8188C17.5125 7.61255 17.1187 7.5188 16.6687 7.5188C15.3562 7.5188 13.6874 8.4938 11.9999 10.125C10.3125 8.4938 8.6437 7.5188 7.3312 7.5188C6.8812 7.5188 6.48745 7.61255 6.1312 7.8188C4.9312 8.51255 4.49995 10.2563 4.8937 12.7125C4.9687 13.1438 5.06245 13.5938 5.17495 14.0438C4.72495 14.175 4.2937 14.3063 3.8812 14.475C1.53745 15.375 0.262451 16.6125 0.262451 18C0.262451 19.3876 1.5562 20.6251 3.8812 21.5251C4.2937 21.6751 4.72495 21.825 5.17495 21.9563C5.06245 22.4063 4.9687 22.8563 4.8937 23.2875C4.49995 25.7625 4.9312 27.5063 6.1312 28.1813C6.48745 28.3876 6.8812 28.4813 7.3312 28.4813C8.66245 28.4813 10.3312 27.5063 11.9999 25.8751C13.6874 27.5063 15.3562 28.4813 16.6687 28.4813C17.1187 28.4813 17.5125 28.3876 17.8687 28.1813C19.0687 27.4876 19.4999 25.7438 19.1062 23.2875C19.0312 22.8563 18.9374 22.4063 18.8249 21.9563C19.2749 21.825 19.7062 21.6938 20.1187 21.5251C22.4624 20.6251 23.7374 19.3876 23.7374 18C23.7374 16.6125 22.4624 15.375 20.1187 14.475ZM17.3437 8.7563C18.1124 9.2063 18.375 10.5938 18.0562 12.5625C18 12.9563 17.9062 13.3688 17.7937 13.8C16.8187 13.575 15.7874 13.425 14.7 13.3313C14.0625 12.4313 13.4062 11.625 12.7499 10.8938C14.1374 9.52505 15.5437 8.58755 16.6874 8.58755C16.9312 8.58755 17.1562 8.6438 17.3437 8.7563ZM15.2437 19.8751C14.9062 20.4751 14.5124 21.075 14.0999 21.675C13.4062 21.7313 12.7124 21.7501 11.9999 21.7501C11.2687 21.7501 10.5749 21.7313 9.89995 21.675C9.48745 21.075 9.11245 20.4751 8.77495 19.8751C8.4187 19.2563 8.0812 18.6188 7.7812 18C8.0812 17.3813 8.4187 16.7438 8.77495 16.125C9.11245 15.525 9.5062 14.925 9.9187 14.325C10.6125 14.2688 11.3062 14.25 12.0187 14.25C12.7499 14.25 13.4437 14.2688 14.1187 14.325C14.5312 14.925 14.9062 15.525 15.2437 16.125C15.6 16.7438 15.9374 17.3813 16.2374 18C15.9187 18.6188 15.6 19.2376 15.2437 19.8751ZM16.7999 19.2563C17.0812 19.9125 17.3062 20.5501 17.5124 21.1876C16.8749 21.3376 16.1999 21.4501 15.4874 21.5438C15.7124 21.1876 15.9562 20.8126 16.1624 20.4188C16.3874 20.0251 16.5937 19.6313 16.7999 19.2563ZM11.9999 24.3376C11.5499 23.8501 11.1187 23.3251 10.7062 22.7813C11.1374 22.8001 11.5687 22.8188 11.9999 22.8188C12.4312 22.8188 12.8625 22.8001 13.2937 22.7813C12.8812 23.3251 12.4499 23.8501 11.9999 24.3376ZM8.51245 21.5251C7.79995 21.4313 7.12495 21.3188 6.48745 21.1688C6.6937 20.5501 6.9187 19.8938 7.19995 19.2375C7.4062 19.6125 7.61245 20.0063 7.83745 20.3813C8.06245 20.7938 8.28745 21.1501 8.51245 21.5251ZM7.19995 16.7438C6.9187 16.0875 6.6937 15.45 6.48745 14.8125C7.12495 14.6625 7.79995 14.55 8.51245 14.4563C8.28745 14.8125 8.0437 15.1875 7.83745 15.5813C7.61245 15.975 7.4062 16.3688 7.19995 16.7438ZM11.9999 11.6625C12.4499 12.15 12.8812 12.675 13.2937 13.2188C12.8625 13.2 12.4312 13.1813 11.9999 13.1813C11.5687 13.1813 11.1374 13.2 10.7062 13.2188C11.1187 12.675 11.5499 12.15 11.9999 11.6625ZM16.1624 15.6L15.4874 14.475C16.1999 14.5688 16.8749 14.6813 17.5124 14.8313C17.3062 15.45 17.0812 16.1063 16.7999 16.7626C16.5937 16.3688 16.3874 15.975 16.1624 15.6ZM5.9437 12.5625C5.62495 10.5938 5.88745 9.2063 6.6562 8.7563C6.8437 8.6438 7.0687 8.58755 7.31245 8.58755C8.43745 8.58755 9.8437 9.5063 11.25 10.8938C10.5937 11.6063 9.93745 12.4313 9.29995 13.3313C8.21245 13.425 7.1812 13.5938 6.2062 13.8C6.0937 13.3688 6.0187 12.9563 5.9437 12.5625ZM1.31245 18C1.31245 17.1188 2.3812 16.1813 4.2562 15.4875C4.6312 15.3375 5.0437 15.2063 5.4562 15.0938C5.7562 16.0313 6.1312 17.025 6.5812 18.0188C6.1312 19.0125 5.73745 19.9875 5.4562 20.925C2.8687 20.175 1.31245 19.0501 1.31245 18ZM6.6562 27.2438C5.88745 26.7938 5.62495 25.4063 5.9437 23.4376C5.99995 23.0438 6.0937 22.6313 6.2062 22.2001C7.1812 22.4251 8.21245 22.5751 9.29995 22.6688C9.93745 23.5688 10.5937 24.3751 11.25 25.1063C9.86245 26.4751 8.4562 27.4126 7.31245 27.4126C7.0687 27.4126 6.8437 27.3563 6.6562 27.2438ZM18.0562 23.4376C18.375 25.4063 18.1124 26.7938 17.3437 27.2438C17.1562 27.3563 16.9312 27.4126 16.6874 27.4126C15.5624 27.4126 14.1562 26.4938 12.7499 25.1063C13.4062 24.3938 14.0625 23.5688 14.7 22.6688C15.7874 22.5751 16.8187 22.4063 17.7937 22.2001C17.9062 22.6313 17.9812 23.0438 18.0562 23.4376ZM19.7437 20.5126C19.3687 20.6626 18.9562 20.7938 18.5437 20.9063C18.2437 19.9688 17.8687 18.9751 17.4187 17.9813C17.8687 16.9876 18.2624 16.0126 18.5437 15.0751C21.1312 15.8251 22.6874 16.95 22.6874 18C22.6874 18.8813 21.5999 19.8188 19.7437 20.5126Z" fill="#61DAFB"/>
<g clip-path="url(#clip0_11321_263621)">
<path d="M45.7241 11.4199C45.7325 11.4518 45.7368 11.4848 45.7368 11.5178V16.6604C45.7368 16.7948 45.6667 16.9188 45.5527 16.9857L41.336 19.4708V24.3963C41.336 24.4622 41.3191 24.5269 41.2869 24.584C41.2548 24.6411 41.2086 24.6886 41.1529 24.7217L32.3505 29.9083C32.3304 29.9199 32.3084 29.9274 32.2864 29.9355C32.2781 29.9382 32.2704 29.9434 32.2617 29.9458C32.2002 29.9623 32.1355 29.9623 32.074 29.9458C32.0638 29.943 32.0547 29.9373 32.0451 29.9336C32.0249 29.926 32.0039 29.9195 31.9847 29.9083L23.1841 24.7216C23.1282 24.6887 23.0817 24.6413 23.0494 24.5842C23.0171 24.5271 23.0001 24.4623 23 24.3963V8.96867C23 8.93485 23.0046 8.90203 23.0128 8.87021C23.0155 8.85939 23.0219 8.84958 23.0257 8.83876C23.0325 8.81912 23.039 8.79894 23.049 8.78067C23.0559 8.76848 23.0659 8.75867 23.0742 8.74739C23.0847 8.73239 23.0943 8.71694 23.1067 8.70376C23.1172 8.69303 23.131 8.68503 23.1429 8.67567C23.1562 8.66439 23.168 8.65221 23.1831 8.6433H23.1836L27.584 6.05003C27.6398 6.01725 27.7029 6 27.7672 6C27.8315 6 27.8947 6.01725 27.9504 6.05003L32.3509 8.6433H32.3518C32.3664 8.65276 32.3789 8.66439 32.3921 8.67521C32.404 8.68458 32.4173 8.69303 32.4278 8.70339C32.4407 8.71694 32.4498 8.73248 32.4607 8.74739C32.4686 8.75867 32.4791 8.76848 32.4855 8.78067C32.496 8.79939 32.502 8.81912 32.5093 8.83885C32.513 8.84958 32.5194 8.85939 32.5221 8.87067C32.5306 8.90258 32.5349 8.93558 32.535 8.96867V18.6045L36.2018 16.4433V11.5174C36.2018 11.4847 36.2065 11.4513 36.2147 11.4199C36.2179 11.4087 36.2239 11.3988 36.2275 11.3881C36.2349 11.3684 36.2413 11.3481 36.2513 11.3299C36.2582 11.3178 36.2682 11.3079 36.2761 11.2967C36.287 11.2817 36.2962 11.2662 36.309 11.253C36.3196 11.2423 36.3328 11.2343 36.3447 11.2249C36.3585 11.2137 36.3704 11.2015 36.3851 11.1926H36.3855L40.7864 8.5993C40.8421 8.56643 40.9053 8.54913 40.9696 8.54913C41.0339 8.54913 41.0971 8.56643 41.1528 8.5993L45.5533 11.1926C45.5688 11.2019 45.5807 11.2137 45.5945 11.2244C45.6058 11.2338 45.6192 11.2423 45.6297 11.2526C45.6425 11.2662 45.6517 11.2817 45.6626 11.2967C45.6709 11.3079 45.681 11.3178 45.6875 11.3299C45.6979 11.3481 45.7039 11.3684 45.7112 11.3881C45.7153 11.3988 45.7213 11.4087 45.7241 11.4199ZM45.0033 16.4434V12.167L43.4633 13.0744L41.3359 14.3282V18.6046L45.0038 16.4434H45.0033ZM40.6028 24.1793V19.8999L38.5102 21.1233L32.5346 24.6142V28.9337L40.6028 24.1793ZM23.7335 9.61776V24.1793L31.8009 28.9333V24.6147L27.5864 22.1732L27.5851 22.1723L27.5833 22.1714C27.5691 22.1629 27.5571 22.1508 27.5439 22.1405C27.5324 22.131 27.5191 22.1236 27.5091 22.1132L27.5082 22.1118C27.4963 22.1001 27.488 22.0856 27.478 22.0725C27.4688 22.0598 27.4578 22.049 27.4505 22.0359L27.45 22.0345C27.4418 22.0205 27.4367 22.0036 27.4308 21.9877C27.4248 21.9736 27.4171 21.9604 27.4133 21.9455V21.945C27.4088 21.9272 27.4079 21.9084 27.4061 21.8901C27.4043 21.8761 27.4006 21.862 27.4006 21.8479V11.779L25.2735 10.5247L23.7335 9.6183V9.61776ZM27.7677 6.80839L24.1012 8.96867L27.7668 11.1288L31.4328 8.96812L27.7668 6.80839H27.7677ZM29.6744 20.29L31.8014 19.0368V9.61776L30.2616 10.5252L28.134 11.7789V21.1978L29.6744 20.29ZM40.9696 9.35767L37.3036 11.5178L40.9696 13.6781L44.6351 11.5174L40.9696 9.35767ZM40.6028 14.3282L38.4754 13.0744L36.9355 12.167V16.4434L39.0624 17.6968L40.6028 18.6046L40.6028 14.3282ZM32.1673 23.9651L37.5445 20.8229L40.2324 19.2528L36.5691 17.0939L32.3513 19.5794L28.5072 21.8447L32.1673 23.9651Z" fill="#FF2D20"/>
</g>
<circle cx="23.5" cy="17.5" r="5.25" fill="white" stroke="#E2E2E2" stroke-width="0.5"/>
<path d="M23.0758 20V15H23.9242V20H23.0758ZM21 17.9242V17.0758H26V17.9242H21Z" fill="black"/>
<defs>
<clipPath id="clip0_11321_263621">
<rect width="22.7368" height="24" fill="white" transform="translate(23 6)"/>
</clipPath>
</defs>
</svg>
