<svg width="47" height="36" viewBox="0 0 47 36" fill="none" xmlns="http://www.w3.org/2000/svg">
<g clip-path="url(#clip0_11321_263580)">
<mask id="mask0_11321_263580" style="mask-type:luminance" maskUnits="userSpaceOnUse" x="5" y="0" width="36" height="36">
<path d="M23 36C32.9411 36 41 27.9411 41 18C41 8.05887 32.9411 0 23 0C13.0589 0 5 8.05887 5 18C5 27.9411 13.0589 36 23 36Z" fill="white"/>
</mask>
<g mask="url(#mask0_11321_263580)">
<path d="M23 36C32.9411 36 41 27.9411 41 18C41 8.05887 32.9411 0 23 0C13.0589 0 5 8.05887 5 18C5 27.9411 13.0589 36 23 36Z" fill="black"/>
<path d="M34.9017 31.504L18.8284 10.8H15.8V25.194H18.2227V13.8769L32.9999 32.969C33.6657 32.5235 34.3011 32.0341 34.9017 31.504Z" fill="url(#paint0_linear_11321_263580)"/>
<path d="M28.0001 10.8H30.4002V25.2H28.0001V10.8Z" fill="url(#paint1_linear_11321_263580)"/>
</g>
</g>
<defs>
<linearGradient id="paint0_linear_11321_263580" x1="1078.48" y1="1260.8" x2="1716.36" y2="2051.42" gradientUnits="userSpaceOnUse">
<stop stop-color="white"/>
<stop offset="1" stop-color="white" stop-opacity="0"/>
</linearGradient>
<linearGradient id="paint1_linear_11321_263580" x1="148.002" y1="10.8" x2="143.942" y2="1068.29" gradientUnits="userSpaceOnUse">
<stop stop-color="white"/>
<stop offset="1" stop-color="white" stop-opacity="0"/>
</linearGradient>
<clipPath id="clip0_11321_263580">
<rect width="36" height="36" fill="white" transform="translate(5)"/>
</clipPath>
</defs>
</svg>
